<?xml version="1.0" standalone="no"?>
<!DOCTYPE svg PUBLIC "-//W3C//DTD SVG 20010904//EN"
 "http://www.w3.org/TR/2001/REC-SVG-20010904/DTD/svg10.dtd">
<svg version="1.0" xmlns="http://www.w3.org/2000/svg"
 width="3334.000000pt" height="3334.000000pt" viewBox="0 0 3334.000000 3334.000000"
 preserveAspectRatio="xMidYMid meet">
<metadata>
Created by potrace 1.11, written by Peter Selinger 2001-2013
</metadata>
<g transform="translate(0.000000,3334.000000) scale(0.100000,-0.100000)"
fill="#000000" stroke="none">
<path d="M20718 28520 l-23 -6 0 -3802 c0 -2529 3 -3803 10 -3805 5 -2 1713
-3 3795 -3 l3785 1 0 3808 0 3807 -25 1 c-148 4 -7525 3 -7542 -1z"/>
<path d="M12685 28470 c-1 -3 -2 -1697 -2 -3766 l0 -3761 3771 1 3771 1 0
3765 0 3765 -3768 0 c-2073 0 -3770 -2 -3772 -5z"/>
<path d="M20689 20493 c0 -10 0 -7496 0 -7546 l1 -37 3803 2 3802 3 1 3793 1
3792 -3804 0 c-2091 0 -3803 -3 -3804 -7z"/>
<path d="M4682 16715 l3 -3770 3765 0 3765 0 0 3770 0 3770 -3768 0 -3767 0 2
-3770z"/>
<path d="M12691 20475 c-6 -8 -8 -7513 -2 -7535 0 -3 1698 -5 3771 -5 l3770 0
0 3773 c0 2074 -3 3772 -7 3773 -5 0 -1699 1 -3766 2 -2496 1 -3761 -1 -3766
-8z"/>
<path d="M4695 12472 c-3 -3 -5 -1701 -5 -3774 l0 -3768 3765 0 c3005 0 3765
3 3766 13 1 16 1 7508 0 7523 -1 8 -1025 11 -3761 11 -2068 0 -3762 -2 -3765
-5z"/>
<path d="M12670 8675 l0 -3805 3794 0 3793 0 0 3805 0 3805 -3793 0 -3794 0 0
-3805z"/>
<path d="M20692 8675 l0 -3805 3796 0 3797 0 0 3803 0 3802 -3796 3 -3797 2 0
-3805z"/>
</g>
</svg>
